<svg xmlns="http://www.w3.org/2000/svg" width="44.064" height="37.009" viewBox="0 0 44.064 37.009">
  <g id="Group_70375" data-name="Group 70375" transform="translate(-5011 -1128)">
    <g id="Group_70374" data-name="Group 70374">
      <g id="Group_70373" data-name="Group 70373">
        <g id="Group_70372" data-name="Group 70372">
          <path id="Path_36816" data-name="Path 36816" d="M18.036,24.242l6.578-4.5a15.416,15.416,0,0,1,17.248.079l2.911,2.03V8.867A4.634,4.634,0,0,0,40.148,4.24H6.627A4.634,4.634,0,0,0,2,8.867v14.9l5.036,1.794A12.373,12.373,0,0,0,18.036,24.242ZM14.59,9.921a5.39,5.39,0,1,1-5.382,5.4A5.393,5.393,0,0,1,14.59,9.921Z" transform="translate(5009 1123.76)" fill="#f98c9b"/>
          <path id="Path_36817" data-name="Path 36817" d="M6.627,33.537h28.8v-.393a4.7,4.7,0,0,1-2.974-7.995l4.328-4.422.016-.016a4.693,4.693,0,0,1,6.72,0l.016.016L44.774,22V19.829L40.069,16.54a12.41,12.41,0,0,0-13.676-.063l-6.578,4.5a15.268,15.268,0,0,1-8.577,2.581,15.445,15.445,0,0,1-5.256-.9L2,21.246v7.68A4.621,4.621,0,0,0,6.627,33.537Z" transform="translate(5009 1129.621)" fill="#f98c9b"/>
          <path id="Path_36818" data-name="Path 36818" d="M28.4,32.475A1.574,1.574,0,0,0,29.973,30.9V24.966l1.638,1.672a1.574,1.574,0,1,0,2.248-2.2l-4.336-4.425h0a1.563,1.563,0,0,0-2.245,0h0l-4.335,4.425a1.574,1.574,0,1,0,2.248,2.2l1.638-1.672V30.9A1.574,1.574,0,0,0,28.4,32.475Z" transform="translate(5020.756 1132.535)" fill="#f98c9b"/>
        </g>
      </g>
    </g>
  </g>
</svg>
