<svg xmlns="http://www.w3.org/2000/svg" width="13.147" height="15.156" viewBox="0 0 13.147 15.156">
  <g id="Group_70358" data-name="Group 70358" transform="translate(5851 -369.25)">
    <path id="Vector" d="M10.014,1.687V.548a.548.548,0,1,0-1.1,0v1.1H4.171V.548a.548.548,0,0,0-1.1,0V1.687A3.1,3.1,0,0,0,0,4.791a.367.367,0,0,0,.365.387H12.724a.362.362,0,0,0,.365-.387A3.1,3.1,0,0,0,10.014,1.687Z" transform="translate(-5850.972 369.25)" fill="#f83751"/>
    <path id="Vector-2" data-name="Vector" d="M12.417,0H.73A.733.733,0,0,0,0,.73v4.5C0,7.421,1.1,8.882,3.652,8.882H9.5c2.556,0,3.652-1.461,3.652-3.652V.73A.733.733,0,0,0,12.417,0ZM4.536,6.113a1.151,1.151,0,0,1-.11.088.553.553,0,0,1-.131.066.464.464,0,0,1-.131.044.99.99,0,0,1-.146.015.727.727,0,0,1-.278-.058A.754.754,0,0,1,3.5,6.113a.741.741,0,0,1,0-1.037.754.754,0,0,1,.241-.153.7.7,0,0,1,.424-.044.464.464,0,0,1,.131.044.553.553,0,0,1,.131.066l.11.088a.741.741,0,0,1,0,1.037Zm0-2.556a.741.741,0,0,1-1.037,0,.741.741,0,0,1,0-1.037.73.73,0,0,1,.8-.153.682.682,0,0,1,.241.153.741.741,0,0,1,0,1.037ZM7.092,6.113A.733.733,0,0,1,6.055,5.076.733.733,0,0,1,7.092,6.113Zm0-2.556-.11.088a.553.553,0,0,1-.131.066.464.464,0,0,1-.131.044.99.99,0,0,1-.146.015.723.723,0,0,1-.73-.73.768.768,0,0,1,.212-.519A.682.682,0,0,1,6.3,2.366a.73.73,0,0,1,.8.153.741.741,0,0,1,0,1.037ZM9.648,6.113A.733.733,0,0,1,8.611,5.076.733.733,0,0,1,9.648,6.113Zm0-2.556-.11.088a.553.553,0,0,1-.131.066.464.464,0,0,1-.131.044,1.1,1.1,0,0,1-.146.015.723.723,0,0,1-.73-.73.768.768,0,0,1,.212-.519.754.754,0,0,1,.241-.153.7.7,0,0,1,.424-.044.464.464,0,0,1,.131.044.553.553,0,0,1,.131.066l.11.088a.741.741,0,0,1,0,1.037Z" transform="translate(-5851 375.524)" fill="#f83751"/>
  </g>
</svg>
