<svg xmlns="http://www.w3.org/2000/svg" width="19.25" height="19.25" viewBox="0 0 19.25 19.25">
  <path id="Path_36686" data-name="Path 36686" d="M17.671,6.4a.791.791,0,0,1-.79.79H12.85a.79.79,0,0,1-.79-.79V2.369a.791.791,0,0,1,.79-.79h4.031a.791.791,0,0,1,.79.79ZM19.25,2.369A2.371,2.371,0,0,0,16.881,0H12.85a2.371,2.371,0,0,0-2.369,2.368V6.4A2.371,2.371,0,0,0,12.85,8.768h4.031A2.371,2.371,0,0,0,19.25,6.4ZM2.369,8.769H6.4A2.371,2.371,0,0,0,8.769,6.4V2.369A2.371,2.371,0,0,0,6.4,0H2.369A2.371,2.371,0,0,0,0,2.369V6.4A2.371,2.371,0,0,0,2.369,8.768ZM19.25,16.881V12.85a2.371,2.371,0,0,0-2.369-2.368H12.85a2.371,2.371,0,0,0-2.369,2.368v4.032A2.371,2.371,0,0,0,12.85,19.25h4.031a2.371,2.371,0,0,0,2.369-2.369ZM2.369,19.25H6.4a2.371,2.371,0,0,0,2.369-2.369V12.85A2.371,2.371,0,0,0,6.4,10.481H2.369A2.371,2.371,0,0,0,0,12.85v4.032A2.371,2.371,0,0,0,2.369,19.25Z" fill="#f83751" fill-rule="evenodd"/>
</svg>
