<svg xmlns="http://www.w3.org/2000/svg" width="17.23" height="17.877" viewBox="0 0 17.23 17.877">
  <g id="Group_70315" data-name="Group 70315" transform="translate(-17675 115.75)">
    <g id="Group_70314" data-name="Group 70314" transform="translate(17675 -115.75)">
      <path id="Vector" d="M11.631,5.815V7.624a11.186,11.186,0,0,0-1.292-.086V5.815c0-2.714-.767-4.523-4.523-4.523S1.292,3.1,1.292,5.815V7.538A11.186,11.186,0,0,0,0,7.624V5.815C0,3.317.6,0,5.815,0S11.631,3.317,11.631,5.815Z" transform="translate(2.8)" fill="#f83751"/>
      <path id="Vector-2" data-name="Vector" d="M14.431.086A11.186,11.186,0,0,0,13.138,0H4.092A11.186,11.186,0,0,0,2.8.086C.6.353,0,1.43,0,4.308V6.031c0,3.446.862,4.308,4.308,4.308h8.615c3.446,0,4.308-.862,4.308-4.308V4.308C17.23,1.43,16.627.353,14.431.086ZM5.781,5.781a.906.906,0,0,1-.612.25.858.858,0,0,1-.327-.069.889.889,0,0,1-.284-.181.906.906,0,0,1-.25-.612.858.858,0,0,1,.069-.327,1,1,0,0,1,.181-.284.889.889,0,0,1,.284-.181.86.86,0,0,1,.939.181,1,1,0,0,1,.181.284.858.858,0,0,1,.069.327A.906.906,0,0,1,5.781,5.781ZM9.408,5.5a1,1,0,0,1-.181.284.906.906,0,0,1-.612.25A.89.89,0,0,1,8,5.781,1,1,0,0,1,7.823,5.5a.858.858,0,0,1-.069-.327A.89.89,0,0,1,8,4.557a.9.9,0,0,1,1.223,0,.89.89,0,0,1,.25.612A.858.858,0,0,1,9.408,5.5Zm3.265.284a.874.874,0,0,1-1.223,0,.874.874,0,0,1,0-1.223.9.9,0,0,1,1.223,0c.034.043.069.086.1.138a.479.479,0,0,1,.078.146A.548.548,0,0,1,12.906,5a1.3,1.3,0,0,1,.017.172A.906.906,0,0,1,12.673,5.781Z" transform="translate(0 7.538)" fill="#f83751"/>
    </g>
  </g>
</svg>
