<svg xmlns="http://www.w3.org/2000/svg" width="27" height="27" viewBox="0 0 27 27">
  <g id="Group_57083" data-name="Group 57083" transform="translate(-1663 -270)">
    <circle id="Ellipse_543" data-name="Ellipse 543" cx="13.5" cy="13.5" r="13.5" transform="translate(1663 270)" fill="#fce4e7"/>
    <g id="Group_57080" data-name="Group 57080" transform="translate(-84.304 -507.418)">
      <g id="_5402370_bin_delete_remove_trash_can_icon" data-name="5402370_bin_delete_remove_trash_can_icon" transform="translate(1756.304 786.417)">
        <path id="Path_294" data-name="Path 294" d="M11.961,4.494a.5.5,0,0,1-.5.5H3.5a.5.5,0,0,1,0-1H5.987V3.747A.747.747,0,0,1,6.734,3H8.227a.747.747,0,0,1,.747.747V4h2.489A.5.5,0,0,1,11.961,4.494Z" transform="translate(-3 -3)" fill="#f83751"/>
        <path id="Path_295" data-name="Path 295" d="M5.5,9v4.729a1.245,1.245,0,0,0,1.245,1.245h3.983a1.245,1.245,0,0,0,1.245-1.245V9Zm2.738,3.983a.5.5,0,0,1-1,0V10.991a.5.5,0,0,1,1,0Zm1.991,0a.5.5,0,0,1-1,0V10.991a.5.5,0,0,1,1,0Z" transform="translate(-4.255 -6.013)" fill="#f83751"/>
      </g>
    </g>
  </g>
</svg>
