<svg xmlns="http://www.w3.org/2000/svg" width="11.681" height="11.681" viewBox="0 0 11.681 11.681">
  <g id="Group_70484" data-name="Group 70484" transform="translate(0 -0.002)">
    <g id="Group_70483" data-name="Group 70483" transform="translate(0 0.002)">
      <path id="Path_36951" data-name="Path 36951" d="M10.707,0H6.662a1.355,1.355,0,0,0-.831.344L.284,5.893a.976.976,0,0,0,0,1.376l4.13,4.13a.976.976,0,0,0,1.376,0l5.547-5.546a1.356,1.356,0,0,0,.344-.831V.975A.976.976,0,0,0,10.707,0ZM8.761,3.9a.973.973,0,1,1,.974-.973A.974.974,0,0,1,8.761,3.9Z" transform="translate(0 -0.002)" fill="#f83751"/>
    </g>
  </g>
</svg>
