<svg xmlns="http://www.w3.org/2000/svg" width="19.21" height="20" viewBox="0 0 19.21 20">
  <g id="Group_69274" data-name="Group 69274" transform="translate(-10.11 0.001)">
    <g id="Group_69273" data-name="Group 69273" transform="translate(10.11 -0.001)">
      <path id="Path_36684" data-name="Path 36684" d="M29.01,11.454l-.731-1.123a.608.608,0,0,1,0-.664l.731-1.123a1.914,1.914,0,0,0-.92-2.831l-1.251-.479a.61.61,0,0,1-.391-.537L26.38,3.359a1.914,1.914,0,0,0-2.409-1.75l-1.293.348a.61.61,0,0,1-.632-.205L21.2.71a1.914,1.914,0,0,0-2.977,0l-.842,1.041a.608.608,0,0,1-.631.205L15.46,1.609a1.914,1.914,0,0,0-2.409,1.75L12.982,4.7a.609.609,0,0,1-.39.537l-1.251.479a1.914,1.914,0,0,0-.92,2.832l.73,1.122a.61.61,0,0,1,0,.664l-.731,1.123a1.914,1.914,0,0,0,.92,2.832l1.251.479a.609.609,0,0,1,.39.537l.069,1.338a1.915,1.915,0,0,0,2.409,1.75l1.293-.348a.61.61,0,0,1,.632.206l.842,1.041a1.915,1.915,0,0,0,2.978,0l.842-1.042a.61.61,0,0,1,.631-.206l1.294.348a1.915,1.915,0,0,0,2.408-1.75l.069-1.337a.61.61,0,0,1,.391-.538l1.251-.479A1.914,1.914,0,0,0,29.01,11.454ZM17.075,6.482A1.305,1.305,0,1,1,15.77,7.787,1.307,1.307,0,0,1,17.075,6.482Zm4.787,7.4a1.305,1.305,0,1,1,1.306-1.305A1.307,1.307,0,0,1,21.862,13.88ZM22.977,7.6l-6.092,6.092a.653.653,0,1,1-.923-.923l6.092-6.092a.653.653,0,0,1,.923.923Z" transform="translate(-10.11 0.001)" fill="#f83751"/>
    </g>
  </g>
</svg>
