<svg xmlns="http://www.w3.org/2000/svg" width="27" height="27" viewBox="0 0 27 27">
  <g id="Group_57078" data-name="Group 57078" transform="translate(-1659 -270)">
    <g id="Group_57082" data-name="Group 57082" transform="translate(-4)">
      <circle id="Ellipse_543" data-name="Ellipse 543" cx="13.5" cy="13.5" r="13.5" transform="translate(1663 270)" fill="#fce4e7"/>
      <g id="edit" transform="translate(1668.593 278.689)">
        <path id="Path_9769" data-name="Path 9769" d="M182.284,72.669a.282.282,0,0,0-.076.142l-.394,1.97a.278.278,0,0,0,.274.333.266.266,0,0,0,.055-.005l1.969-.394a.277.277,0,0,0,.143-.076l4.407-4.407-1.969-1.969Zm0,0" transform="translate(-178.212 -65.992)" fill="#f83751"/>
        <path id="Path_9770" data-name="Path 9770" d="M394.185.908a1.393,1.393,0,0,0-1.969,0l-.771.771,1.969,1.969.771-.771a1.392,1.392,0,0,0,0-1.969Zm0,0" transform="translate(-382.376)" fill="#f83751"/>
      </g>
    </g>
  </g>
</svg>
