<svg xmlns="http://www.w3.org/2000/svg" width="17.388" height="14.893" viewBox="0 0 17.388 14.893">
  <g id="Group_70372" data-name="Group 70372" transform="translate(-1625 -587.054)">
    <path id="Vector" d="M16.736,4.973C14.727,1.817,11.789,0,8.694,0A8.418,8.418,0,0,0,4.269,1.3,11.609,11.609,0,0,0,.652,4.973a5.017,5.017,0,0,0,0,4.947C2.66,13.084,5.6,14.893,8.694,14.893a8.418,8.418,0,0,0,4.425-1.3A11.609,11.609,0,0,0,16.736,9.92,5.017,5.017,0,0,0,16.736,4.973Zm-8.042,5.99a3.512,3.512,0,1,1,3.512-3.512A3.508,3.508,0,0,1,8.694,10.963Z" transform="translate(1625 587.054)" fill="#ffb5bf"/>
    <path id="Vector-2" data-name="Vector" d="M2.478,0A2.482,2.482,0,1,0,4.964,2.486,2.484,2.484,0,0,0,2.478,0Z" transform="translate(1631.216 592.018)" fill="#ffb5bf"/>
  </g>
</svg>
