<svg id="Group_69177" data-name="Group 69177" xmlns="http://www.w3.org/2000/svg" width="184.316" height="79.556" viewBox="0 0 184.316 79.556">
  <g id="Group_69172" data-name="Group 69172" transform="translate(15.347 64.195)">
    <path id="Path_36669" data-name="Path 36669" d="M173.019,285.933,173,276.716l-4.52,7.593h-1.6l-4.5-7.4v9.019H159.04V270.571h2.941l5.749,9.547,5.662-9.547h2.919l.043,15.362Z" transform="translate(-159.04 -270.571)" fill="#fff"/>
    <path id="Path_36670" data-name="Path 36670" d="M191.67,270.571h3.555v15.362H191.67Z" transform="translate(-164.13 -270.571)" fill="#fff"/>
    <path id="Path_36671" data-name="Path 36671" d="M208,270.571h3.555v12.465h7.7v2.9H208Z" transform="translate(-166.677 -270.571)" fill="#fff"/>
    <path id="Path_36672" data-name="Path 36672" d="M231.5,270.571h3.555v15.362H231.5Z" transform="translate(-170.343 -270.571)" fill="#fff"/>
    <path id="Path_36673" data-name="Path 36673" d="M250.69,273.468h-4.916v-2.9H259.16v2.9h-4.915v12.464H250.69Z" transform="translate(-172.57 -270.571)" fill="#fff"/>
    <path id="Path_36674" data-name="Path 36674" d="M280.53,282.64H273.4l-1.361,3.292h-3.642l6.847-15.362h3.511l6.868,15.362h-3.73Zm-1.119-2.7-2.437-5.882-2.435,5.882Z" transform="translate(-176.098 -270.571)" fill="#fff"/>
    <path id="Path_36675" data-name="Path 36675" d="M308.289,285.933l-2.962-4.28h-3.27v4.28H298.5V270.571h6.649a8.536,8.536,0,0,1,3.544.681,5.268,5.268,0,0,1,2.315,1.93,5.323,5.323,0,0,1,.812,2.963,5,5,0,0,1-3.16,4.85l3.445,4.937Zm-.9-11.774a3.735,3.735,0,0,0-2.436-.69h-2.9v5.354h2.9a3.7,3.7,0,0,0,2.436-.7,2.77,2.77,0,0,0,0-3.962Z" transform="translate(-180.795 -270.571)" fill="#fff"/>
    <path id="Path_36676" data-name="Path 36676" d="M332.132,280.49v5.443h-3.555v-5.486l-5.947-9.876h3.775l4.1,6.825,4.1-6.825H338.1Z" transform="translate(-184.559 -270.571)" fill="#fff"/>
  </g>
  <g id="Group_69174" data-name="Group 69174" transform="translate(66.904)">
    <g id="Group_69173" data-name="Group 69173" transform="translate(0 6.909)">
      <path id="Path_36677" data-name="Path 36677" d="M220.126,207.515l4.582-.666,2.049-4.152,2.049,4.152,4.582.666-3.315,3.232.783,4.563-4.1-2.154-4.1,2.154.783-4.563Z" transform="translate(-220.126 -202.698)" fill="#fff"/>
      <path id="Path_36678" data-name="Path 36678" d="M264.256,207.515l4.582-.666,2.049-4.152,2.049,4.152,4.582.666-3.315,3.232.783,4.563-4.1-2.154-4.1,2.154.783-4.563Z" transform="translate(-227.01 -202.698)" fill="#fff"/>
    </g>
    <path id="Path_36679" data-name="Path 36679" d="M242.191,199.329l4.582-.666,2.049-4.152,2.049,4.152,4.582.666-3.315,3.232.783,4.563-4.1-2.154-4.1,2.154.783-4.563Z" transform="translate(-223.568 -194.512)" fill="#fff"/>
  </g>
  <g id="Group_69176" data-name="Group 69176" transform="translate(0 9.761)">
    <path id="Path_36680" data-name="Path 36680" d="M234.735,224.235l8.93-1.3,3.994-8.092,3.994,8.092,8.93,1.3-6.462,6.3,1.525,8.894-7.987-4.2-7.987,4.2,1.525-8.894Z" transform="translate(-155.5 -207.444)" fill="#fff"/>
    <g id="Group_69175" data-name="Group 69175">
      <path id="Path_36681" data-name="Path 36681" d="M152.613,216.253l-11.757-10.176h51.221l26.585,23.01L216.6,241.9l-2.423-5.492H188.732l-7.524-6.513h26.069l-3.177-2.75H171.613L162.207,219h32.486l-3.177-2.75Z" transform="translate(-140.856 -206.077)" fill="#fff"/>
      <path id="Path_36682" data-name="Path 36682" d="M344.858,206.077,333.1,216.253H294.2L291.021,219h32.486l-9.405,8.141H281.615l-3.177,2.75h26.069l-7.524,6.513H271.537l-2.423,5.492-2.063-12.811,26.585-23.01Z" transform="translate(-160.541 -206.077)" fill="#fff"/>
    </g>
  </g>
</svg>
