<svg xmlns="http://www.w3.org/2000/svg" width="140.566" height="60.673" viewBox="0 0 140.566 60.673">
  <g id="Group_69258" data-name="Group 69258" transform="translate(-266 -181)">
    <g id="Group_69177" data-name="Group 69177" transform="translate(266 181)">
      <g id="Group_69172" data-name="Group 69172" transform="translate(11.704 48.957)">
        <path id="Path_36669" data-name="Path 36669" d="M169.7,282.286l-.017-7.029-3.447,5.791h-1.221l-3.431-5.64v6.878H159.04V270.571h2.243l4.385,7.281,4.318-7.281h2.226l.033,11.715Z" transform="translate(-159.04 -270.571)" fill="#1a1718"/>
        <path id="Path_36670" data-name="Path 36670" d="M191.67,270.571h2.711v11.715H191.67Z" transform="translate(-170.667 -270.571)" fill="#1a1718"/>
        <path id="Path_36671" data-name="Path 36671" d="M208,270.571h2.711v9.506h5.874v2.209H208Z" transform="translate(-176.485 -270.571)" fill="#1a1718"/>
        <path id="Path_36672" data-name="Path 36672" d="M231.5,270.571h2.711v11.715H231.5Z" transform="translate(-184.86 -270.571)" fill="#1a1718"/>
        <path id="Path_36673" data-name="Path 36673" d="M249.523,272.781h-3.749v-2.21h10.209v2.21h-3.749v9.506h-2.711Z" transform="translate(-189.946 -270.571)" fill="#1a1718"/>
        <path id="Path_36674" data-name="Path 36674" d="M277.65,279.776h-5.439l-1.038,2.511h-2.778l5.221-11.715h2.678l5.238,11.715h-2.845Zm-.854-2.058-1.858-4.486-1.857,4.486Z" transform="translate(-198.006 -270.571)" fill="#1a1718"/>
        <path id="Path_36675" data-name="Path 36675" d="M305.966,282.286l-2.259-3.264h-2.494v3.264H298.5V270.571h5.071a6.51,6.51,0,0,1,2.7.519,4.017,4.017,0,0,1,1.766,1.472,4.06,4.06,0,0,1,.619,2.26,3.816,3.816,0,0,1-2.41,3.7l2.627,3.765Zm-.686-8.979a2.848,2.848,0,0,0-1.858-.526h-2.209v4.083h2.209a2.819,2.819,0,0,0,1.858-.536,2.112,2.112,0,0,0,0-3.021Z" transform="translate(-208.734 -270.571)" fill="#1a1718"/>
        <path id="Path_36676" data-name="Path 36676" d="M329.876,278.135v4.151h-2.711V278.1l-4.535-7.532h2.879l3.129,5.2,3.129-5.2h2.661Z" transform="translate(-217.332 -270.571)" fill="#1a1718"/>
      </g>
      <g id="Group_69174" data-name="Group 69174" transform="translate(51.024)">
        <g id="Group_69173" data-name="Group 69173" transform="translate(0 5.269)">
          <path id="Path_36677" data-name="Path 36677" d="M220.126,206.372l3.494-.508,1.563-3.166,1.563,3.166,3.494.508-2.528,2.465.6,3.48-3.125-1.643-3.125,1.643.6-3.48Z" transform="translate(-220.126 -202.698)" fill="#f83751"/>
          <path id="Path_36678" data-name="Path 36678" d="M264.256,206.372l3.494-.508,1.563-3.166,1.563,3.166,3.494.508-2.528,2.465.6,3.48-3.125-1.643-3.125,1.643.6-3.48Z" transform="translate(-235.851 -202.698)" fill="#f83751"/>
        </g>
        <path id="Path_36679" data-name="Path 36679" d="M242.191,198.186l3.494-.508,1.563-3.166,1.563,3.166,3.494.508-2.528,2.465.6,3.48-3.125-1.643-3.125,1.643.6-3.48Z" transform="translate(-227.988 -194.512)" fill="#f83751"/>
      </g>
      <g id="Group_69176" data-name="Group 69176" transform="translate(0 7.444)">
        <path id="Path_36680" data-name="Path 36680" d="M234.735,222.006l6.81-.99,3.046-6.171,3.046,6.171,6.81.99-4.928,4.8,1.163,6.783-6.091-3.2-6.091,3.2,1.163-6.783Z" transform="translate(-174.308 -209.201)" fill="#f83751"/>
        <g id="Group_69175" data-name="Group 69175">
          <path id="Path_36681" data-name="Path 36681" d="M149.822,213.837l-8.966-7.761h39.063l20.274,17.548-1.573,9.77-1.848-4.188H177.368l-5.738-4.967H191.51l-2.423-2.1H164.312l-7.173-6.208h24.775l-2.423-2.1Z" transform="translate(-140.856 -206.077)" fill="#f83751"/>
          <path id="Path_36682" data-name="Path 36682" d="M326.389,206.077l-8.966,7.761H287.755l-2.423,2.1h24.775l-7.173,6.208H278.158l-2.423,2.1h19.881l-5.738,4.967H270.472l-1.848,4.188-1.573-9.77,20.274-17.548Z" transform="translate(-185.823 -206.077)" fill="#f83751"/>
        </g>
      </g>
    </g>
  </g>
</svg>
