<svg xmlns="http://www.w3.org/2000/svg" width="73.797" height="70.944" viewBox="0 0 73.797 70.944">
  <g id="Group_70502" data-name="Group 70502" transform="translate(-7 -8)">
    <path id="Path_36952" data-name="Path 36952" d="M21.283,28.485a8.053,8.053,0,1,0-8.053-8.053,8.053,8.053,0,0,0,8.053,8.053Z" transform="translate(7.292 5.127)" fill="#f98c9b"/>
    <path id="Path_36953" data-name="Path 36953" d="M63.433,40.558a20.62,20.62,0,0,1,4.341.456,18.668,18.668,0,0,1,2.171.543,20.23,20.23,0,0,1,2.171.825V15.857A7.857,7.857,0,0,0,64.258,8h-49.4A7.857,7.857,0,0,0,7,15.857V56.576a7.857,7.857,0,0,0,7.857,7.857H41.837c0-.716-.109-1.433-.109-2.171a14.4,14.4,0,0,1,.109-2.171A21.705,21.705,0,0,1,63.433,40.558Zm-52.092-24.7a3.538,3.538,0,0,1,3.516-3.516h49.4a3.538,3.538,0,0,1,3.516,3.516v13.37a14.368,14.368,0,0,0-2.843-1.259,14.825,14.825,0,0,0-14.976,3.538l-10.7,10.527-1.476-1.476h0l-1.15-1.107a10.288,10.288,0,0,0-14.347,0L11.341,50.281Z" transform="translate(0)" fill="#f98c9b"/>
    <path id="Path_36954" data-name="Path 36954" d="M50.988,27.336l-1.215-.629h0l-.955-.412a15.977,15.977,0,0,0-2.171-.738c-.543-.13-1.064-.239-1.606-.326l-.76-.109h-.868a9.441,9.441,0,0,0-1.107-.109,13.76,13.76,0,0,0-1.65,0,13.216,13.216,0,0,0-1.584.217,11.612,11.612,0,0,0-1.5.369h0a6.86,6.86,0,0,0-1.129.369,16.322,16.322,0,0,0-3.039,1.454l-.695.456a16.236,16.236,0,0,0-2.583,2.171l-.586.608A13.76,13.76,0,0,0,28,32.632c-.13.174-.239.369-.369.564a16.539,16.539,0,0,0-1.823,3.972c-.152.456-.26.912-.369,1.389s-.2.955-.26,1.433a.369.369,0,0,1,0,.152,18.145,18.145,0,0,0,0,4.341A17.364,17.364,0,0,0,59.67,42.377,17.19,17.19,0,0,0,50.988,27.336ZM42.306,55.4a13.023,13.023,0,0,1,0-26.046,12.7,12.7,0,0,1,4.515.825h0a8.682,8.682,0,0,1,1.042.412h0l.3.152A13.023,13.023,0,0,1,42.306,55.4Z" transform="translate(21.128 19.885)" fill="#f98c9b"/>
    <path id="Path_36955" data-name="Path 36955" d="M43.514,30.266a2.171,2.171,0,0,0-3.082,0L37,33.913,33.6,30.44a2.18,2.18,0,0,0-3.169,3l3.6,3.82-3.6,3.8a2.149,2.149,0,1,0,3.082,3L36.916,40.4l3.429,3.646a2.149,2.149,0,1,0,3.082-3L40,37.168l3.6-3.82a2.171,2.171,0,0,0-.087-3.082Z" transform="translate(26.669 25.311)" fill="#f98c9b"/>
  </g>
</svg>
