<svg xmlns="http://www.w3.org/2000/svg" xmlns:xlink="http://www.w3.org/1999/xlink" width="129" height="150.763" viewBox="0 0 129 150.763">
  <defs>
    <linearGradient id="linear-gradient" y1="0.5" x2="1" y2="0.5" gradientUnits="objectBoundingBox">
      <stop offset="0" stop-color="#f83751"/>
      <stop offset="1" stop-color="#fce4e7"/>
    </linearGradient>
  </defs>
  <g id="Group_70519" data-name="Group 70519" transform="translate(-36 -43.45)" style="isolation: isolate">
    <g id="Folder_Empty" data-name="Folder Empty" transform="translate(36 43.45)">
      <path id="Path_36771" data-name="Path 36771" d="M93.758,132.977a8.371,8.371,0,0,1-6.771-9.7,6.236,6.236,0,0,0-5.043-7.259,8.534,8.534,0,0,1-6.771-9.722l2.106.356A6.384,6.384,0,0,0,82.35,113.9,8.367,8.367,0,0,1,89.1,123.6a6.24,6.24,0,0,0,5.043,7.256Z" transform="translate(-61.132 -83.903)" fill="#f83751"/>
      <path id="Path_36772" data-name="Path 36772" d="M175.105,91.481a12.031,12.031,0,0,1-.6-17.013,9.9,9.9,0,0,0-.488-14,12.292,12.292,0,0,1-.6-17.02l1.564,1.454a10.118,10.118,0,0,0,.51,14.019,12.053,12.053,0,0,1,.552,17.023,9.9,9.9,0,0,0,.513,13.969Z" transform="translate(-122.432 -43.45)" fill="#f83751"/>
      <path id="Path_36773" data-name="Path 36773" d="M239.846,140.38a14.026,14.026,0,0,1,3.371-19.543,11.906,11.906,0,0,0,2.851-16.578l1.75-1.229a14.044,14.044,0,0,1-3.375,19.55,11.885,11.885,0,0,0-2.851,16.578Z" transform="translate(-165.551 -81.798)" fill="#f83751"/>
      <path id="Path_36774" data-name="Path 36774" d="M210.091,216.65l-7.908,52.909a11.336,11.336,0,0,1-11.211,9.665h-.567a6.7,6.7,0,0,0,6.554-8.047l-9.754-47.218a8.061,8.061,0,0,0-7.89-6.415H122.394l-4.757-7.84a8.057,8.057,0,0,0-6.881-3.874h-2.687a8.054,8.054,0,0,1,7.84-9.91h13.624a8.065,8.065,0,0,1,6.814,3.756l4.875,7.73h60.9a8.057,8.057,0,0,1,7.968,9.244Z" transform="translate(-82.246 -141.585)" fill="url(#linear-gradient)"/>
      <path id="Path_36776" data-name="Path 36776" d="M150.3,297.123H65.424a8.054,8.054,0,0,1-7.887-6.416L45.7,233.416a8.057,8.057,0,0,1,7.89-9.686H70.645A8.058,8.058,0,0,1,77.53,227.6l4.757,7.839h56.918a8.061,8.061,0,0,1,7.89,6.413l9.754,47.223a6.7,6.7,0,0,1-6.554,8.047Z" transform="translate(-42.136 -159.485)" fill="#fce4e7"/>
      <g id="Group_70217" data-name="Group 70217" transform="translate(2.334 53.265)">
        <path id="Path_36777" data-name="Path 36777" d="M148.376,296.261H63.5a9.159,9.159,0,0,1-8.934-7.28L42.739,231.7a9.126,9.126,0,0,1,8.938-10.972H68.725a9.173,9.173,0,0,1,7.794,4.373l4.447,7.313h56.305a9.169,9.169,0,0,1,8.952,7.3l9.754,47.218a7.762,7.762,0,0,1-7.6,9.33Zm-96.7-73.393a6.985,6.985,0,0,0-6.828,8.4l11.813,57.268a7.017,7.017,0,0,0,6.842,5.573h84.871a5.623,5.623,0,0,0,5.506-6.771l-9.754-47.218a7.017,7.017,0,0,0-6.846-5.577H79.772L74.7,226.2a7.031,7.031,0,0,0-5.98-3.332Z" transform="translate(-42.55 -210.82)" fill="#fcd1d7"/>
        <path id="Path_36778" data-name="Path 36778" d="M189.043,278.361h-.567v-2.138a5.623,5.623,0,0,0,5.506-6.771l-9.754-47.218a7.017,7.017,0,0,0-6.846-5.577h-57.51l-5.067-8.342a7.031,7.031,0,0,0-5.98-3.346H105.29l-.192-.823a9.126,9.126,0,0,1,8.881-11.225H127.6a9.069,9.069,0,0,1,7.715,4.255l4.565,7.231h60.311a9.126,9.126,0,0,1,9.023,10.473c0,.036.178-1.176-7.9,52.909A12.473,12.473,0,0,1,189.043,278.361ZM121.067,214.53h56.305a9.169,9.169,0,0,1,8.952,7.284l9.754,47.218a7.758,7.758,0,0,1-.584,4.886,10.26,10.26,0,0,0,3.7-6.447l7.908-52.909a6.988,6.988,0,0,0-6.91-8.018H138.7l-5.192-8.228a6.953,6.953,0,0,0-5.909-3.257H113.975a6.988,6.988,0,0,0-6.931,7.772h1.782a9.173,9.173,0,0,1,7.794,4.373Z" transform="translate(-82.651 -192.92)" fill="#fcd1d7"/>
        <path id="Path_36779" data-name="Path 36779" d="M0,0H16.56V5.609H0Z" transform="translate(33.859 48.009) rotate(-45)" fill="#f83751"/>
        <path id="Path_36780" data-name="Path 36780" d="M0,0H5.609V16.56H0Z" transform="translate(33.859 40.264) rotate(-45)" fill="#f83751"/>
        <path id="Path_36781" data-name="Path 36781" d="M0,0H16.56V5.609H0Z" transform="translate(61.113 48.01) rotate(-45)" fill="#f83751"/>
        <path id="Path_36782" data-name="Path 36782" d="M0,0H5.609V16.56H0Z" transform="translate(61.113 40.265) rotate(-45)" fill="#f83751"/>
        <path id="Path_36783" data-name="Path 36783" d="M181.512,364.916a30.807,30.807,0,0,0-38.726,0l-.916.823,3.988,4.444.916-.8a24.863,24.863,0,0,1,30.751,0l.916.813,3.988-4.455Z" transform="translate(-106.476 -299.217)" fill="#f83751"/>
      </g>
      <path id="Path_36785" data-name="Path 36785" d="M310.468,136.666a3.428,3.428,0,1,1,3.428-3.428A3.428,3.428,0,0,1,310.468,136.666Zm0-4.715a1.286,1.286,0,1,0,.912.376A1.29,1.29,0,0,0,310.468,131.952Z" transform="translate(-210.451 -99.035)" fill="#f83751"/>
      <path id="Path_36786" data-name="Path 36786" d="M353.273,108.5a4.711,4.711,0,1,1,3.337-1.375A4.708,4.708,0,0,1,353.273,108.5Zm0-7.273a2.569,2.569,0,1,0,2.569,2.566,2.569,2.569,0,0,0-2.569-2.566Z" transform="translate(-237.188 -79.256)" fill="#f83751"/>
      <path id="Path_36787" data-name="Path 36787" d="M0,0H6.928V2.138H0Z" transform="translate(5.071 144.331) rotate(-45)" fill="#f83751"/>
      <path id="Path_36788" data-name="Path 36788" d="M79.18,447.07h2.138V454H79.18Z" transform="translate(-63.792 -303.235)" fill="#f83751"/>
      <path id="Path_36789" data-name="Path 36789" d="M36,419.03h6.928v2.138H36Z" transform="translate(-36 -285.187)" fill="#f83751"/>
    </g>
  </g>
</svg>
