<svg xmlns="http://www.w3.org/2000/svg" width="11.678" height="11.695" viewBox="0 0 11.678 11.695">
  <g id="Group_70321" data-name="Group 70321" transform="translate(-695 -354)">
    <path id="Vector" d="M5.292,7.573,4.21,8.655a.588.588,0,0,1-.825.006c-.064-.064-.129-.123-.193-.187A16.616,16.616,0,0,1,1.561,6.561,10.425,10.425,0,0,1,.415,4.567,5.021,5.021,0,0,1,0,2.655,3.025,3.025,0,0,1,.211,1.526,2.692,2.692,0,0,1,.883.55,1.713,1.713,0,0,1,2.1,0a1.1,1.1,0,0,1,.474.105.953.953,0,0,1,.392.327L4.321,2.345a2,2,0,0,1,.234.409.924.924,0,0,1,.082.357.794.794,0,0,1-.123.415,1.989,1.989,0,0,1-.327.415L3.743,4.4a.313.313,0,0,0-.094.234.531.531,0,0,0,.018.134c.018.047.035.082.047.117a4.853,4.853,0,0,0,.544.749c.263.3.544.614.848.924.058.058.123.117.181.175A.586.586,0,0,1,5.292,7.573Z" transform="translate(695 354)" fill="#f83751"/>
    <path id="Vector-2" data-name="Vector" d="M7.234,2.509a1.485,1.485,0,0,1-.088.5,1.428,1.428,0,0,1-.058.14,2.413,2.413,0,0,1-.4.6,2.636,2.636,0,0,1-.959.69c-.006,0-.012.006-.018.006a2.954,2.954,0,0,1-1.123.216,4.873,4.873,0,0,1-1.906-.427A10.271,10.271,0,0,1,.672,3.07C.444,2.9.216,2.731,0,2.55L1.912.637a3.285,3.285,0,0,0,.433.281c.029.012.064.029.105.047A.4.4,0,0,0,2.6.988a.322.322,0,0,0,.24-.1L3.281.45A1.794,1.794,0,0,1,3.7.123.779.779,0,0,1,4.117,0a.933.933,0,0,1,.357.076A2.262,2.262,0,0,1,4.883.3L6.818,1.678a.887.887,0,0,1,.322.374A1.2,1.2,0,0,1,7.234,2.509Z" transform="translate(699.444 361.041)" fill="#f83751"/>
  </g>
</svg>
