<svg xmlns="http://www.w3.org/2000/svg" width="43.953" height="43.923" viewBox="0 0 43.953 43.923">
  <path id="Path_1461" data-name="Path 1461" d="M419.112,1002.847A21.962,21.962,0,1,0,441,1024.814,21.969,21.969,0,0,0,419.112,1002.847Zm3.973,11.661c1.047-1.764,2.9-1.722,4.007.008a6.02,6.02,0,0,1,.875,3.232,6.1,6.1,0,0,1-.869,3.272c-1.092,1.728-2.968,1.772-4.01.018A6.06,6.06,0,0,1,423.085,1014.508Zm-12.1,0c1.046-1.767,2.892-1.727,4.005,0a6.487,6.487,0,0,1,.009,6.5c-1.1,1.736-2.958,1.781-4.007.022A6.052,6.052,0,0,1,410.99,1014.51Zm19.938,22.13a1.285,1.285,0,0,1-1.769-.738,11.667,11.667,0,0,0-6.057-5.922A10.8,10.8,0,0,0,410,1034.033a19.875,19.875,0,0,0-1.08,1.857,1.33,1.33,0,0,1-1.77.761,1.415,1.415,0,0,1-.668-1.916c2.355-4.775,6.033-7.759,11.442-8.365.365-.041.733-.057,1.159-.09a13.847,13.847,0,0,1,11.71,6.954,11.819,11.819,0,0,1,.808,1.53A1.433,1.433,0,0,1,430.928,1036.641Z" transform="translate(-397.048 -1002.847)" fill="#ff5f60"/>
</svg>
