<svg xmlns="http://www.w3.org/2000/svg" width="49.089" height="49.054" viewBox="0 0 49.089 49.054">
  <path id="Path_1470" data-name="Path 1470" d="M-62.518,1002.848a24.519,24.519,0,0,0-24.513,24.467,24.522,24.522,0,0,0,24.45,24.588,24.523,24.523,0,0,0,24.638-24.526A24.523,24.523,0,0,0-62.518,1002.848Zm4.6,12.934c1.22-1.8,3.128-1.806,4.359-.016a7.182,7.182,0,0,1,.023,7.456c-1.226,1.833-3.157,1.846-4.391.016a6.681,6.681,0,0,1-1.039-3.724A6.7,6.7,0,0,1-57.921,1015.782Zm-13.506,0c1.225-1.8,3.126-1.8,4.361-.011a7.216,7.216,0,0,1,.021,7.459c-1.24,1.841-3.218,1.829-4.43-.039a6.815,6.815,0,0,1-1-3.749A6.6,6.6,0,0,1-71.426,1015.779Zm22.951,17.524a15.907,15.907,0,0,1-14.734,9.4c-5.266-.218-9.641-3.075-12.661-8.151a11.651,11.651,0,0,1-.616-1.2,1.619,1.619,0,0,1,.72-2.2,1.471,1.471,0,0,1,2,.893,12.756,12.756,0,0,0,7.787,6.932,12.007,12.007,0,0,0,13.27-4.5,21.562,21.562,0,0,0,1.493-2.447c.487-.885,1.241-1.247,2.009-.882A1.6,1.6,0,0,1-48.475,1033.3Z" transform="translate(87.031 -1002.848)" fill="#66bd50"/>
</svg>
