<svg id="Group_70259" data-name="Group 70259" xmlns="http://www.w3.org/2000/svg" width="6.622" height="9" viewBox="0 0 6.622 9">
  <path id="Path_74" data-name="Path 74" d="M11.17,295.825c-.932,0-1.865,0-2.8,0a.449.449,0,0,1-.483-.252.454.454,0,0,1,.153-.525c.926-.92,1.846-1.845,2.771-2.766a.435.435,0,0,1,.7,0c.931.928,1.858,1.86,2.79,2.787a.441.441,0,0,1,.139.5.428.428,0,0,1-.452.257C13.053,295.822,12.112,295.825,11.17,295.825Z" transform="translate(-7.856 -292.104)" fill="#f83751"/>
  <path id="Path_75" data-name="Path 75" d="M11.166,386.35c.923,0,1.846,0,2.769,0,.222,0,.418.032.508.258a.48.48,0,0,1-.179.544q-1.359,1.35-2.711,2.708c-.289.289-.491.287-.784-.005-.9-.9-1.791-1.8-2.691-2.688-.163-.162-.288-.332-.192-.565s.314-.252.54-.25C9.338,386.353,10.252,386.35,11.166,386.35Z" transform="translate(-7.851 -381.072)" fill="#f83751"/>
</svg>
