<svg xmlns="http://www.w3.org/2000/svg" width="11.778" height="11.959" viewBox="0 0 11.778 11.959">
  <g id="Group_70468" data-name="Group 70468" transform="translate(-37.767 -271.406)">
    <path id="Vector" d="M11.766,3.973,11.6,2.405C11.364.7,10.589,0,8.931,0H2.841C1.177,0,.407.7.164,2.422L.011,3.979A2.326,2.326,0,0,0,.475,5.631,2.269,2.269,0,0,0,2.3,6.509a2.316,2.316,0,0,0,1.828-.928A2.159,2.159,0,0,0,7.663,5.6a2.32,2.32,0,0,0,1.811.906,2.254,2.254,0,0,0,1.856-.923A2.3,2.3,0,0,0,11.766,3.973Z" transform="translate(37.767 271.406)" fill="#f83751"/>
    <path id="Vector-2" data-name="Vector" d="M1.262.02A1.412,1.412,0,0,0,0,1.429V2.98a.278.278,0,0,0,.277.277h2.7a.278.278,0,0,0,.277-.277V1.627C3.26.444,2.564-.116,1.262.02Z" transform="translate(42.04 280.108)" fill="#f83751"/>
    <path id="Vector-3" data-name="Vector" d="M10.606,1.03V2.717a2.831,2.831,0,0,1-2.83,2.83A.278.278,0,0,1,7.5,5.269V3.917a2.145,2.145,0,0,0-.651-1.675,2.2,2.2,0,0,0-1.534-.515,3.879,3.879,0,0,0-.436.023,1.973,1.973,0,0,0-1.771,1.97V5.269a.278.278,0,0,1-.277.277A2.831,2.831,0,0,1,0,2.717V1.041A.566.566,0,0,1,.758.509a2.644,2.644,0,0,0,.464.113,1.316,1.316,0,0,0,.209.023A2.188,2.188,0,0,0,1.7.662,2.876,2.876,0,0,0,3.515,0,2.746,2.746,0,0,0,5.3.662,2.71,2.71,0,0,0,7.086.011,2.859,2.859,0,0,0,8.874.662a2.591,2.591,0,0,0,.3-.017C9.242.64,9.3.634,9.367.623A2.727,2.727,0,0,0,9.859.5.564.564,0,0,1,10.606,1.03Z" transform="translate(38.367 277.819)" fill="#f83751"/>
  </g>
</svg>
