<svg xmlns="http://www.w3.org/2000/svg" width="19.697" height="20" viewBox="0 0 19.697 20">
  <g id="Group_69275" data-name="Group 69275" transform="translate(-37.767 -271.406)">
    <path id="Vector" d="M19.678,6.645,19.4,4.023C19.006,1.164,17.709,0,14.935,0H4.751C1.968,0,.681,1.164.274,4.051l-.256,2.6A3.891,3.891,0,0,0,.794,9.418a3.8,3.8,0,0,0,3.057,1.467A3.874,3.874,0,0,0,6.909,9.333a3.611,3.611,0,0,0,5.906.038,3.88,3.88,0,0,0,3.029,1.514,3.769,3.769,0,0,0,3.1-1.543A3.855,3.855,0,0,0,19.678,6.645Z" transform="translate(37.767 271.406)" fill="#f83751"/>
    <path id="Vector-2" data-name="Vector" d="M2.111.033A2.362,2.362,0,0,0,0,2.39V4.984a.465.465,0,0,0,.464.464H4.979a.465.465,0,0,0,.464-.464V2.721C5.452.743,4.288-.194,2.111.033Z" transform="translate(44.913 285.959)" fill="#f83751"/>
    <path id="Vector-3" data-name="Vector" d="M17.738,1.723V4.543a4.734,4.734,0,0,1-4.733,4.733.465.465,0,0,1-.464-.464V6.55a3.587,3.587,0,0,0-1.088-2.8,3.673,3.673,0,0,0-2.565-.861,6.488,6.488,0,0,0-.729.038A3.3,3.3,0,0,0,5.2,6.219V8.812a.465.465,0,0,1-.464.464A4.734,4.734,0,0,1,0,4.543v-2.8A.946.946,0,0,1,1.268.852a4.421,4.421,0,0,0,.776.189,2.2,2.2,0,0,0,.35.038,3.659,3.659,0,0,0,.454.028A4.809,4.809,0,0,0,5.878,0,4.592,4.592,0,0,0,8.869,1.107,4.532,4.532,0,0,0,11.85.019a4.781,4.781,0,0,0,2.991,1.088,4.333,4.333,0,0,0,.5-.028c.114-.009.218-.019.322-.038a4.56,4.56,0,0,0,.823-.208A.943.943,0,0,1,17.738,1.723Z" transform="translate(38.77 282.13)" fill="#f83751"/>
  </g>
</svg>
