<svg xmlns="http://www.w3.org/2000/svg" width="75.292" height="69.02" viewBox="0 0 75.292 69.02">
  <g id="image_1829552" transform="translate(0 -0.492)">
    <path id="Path_36879" data-name="Path 36879" d="M19.606,181.53a11.747,11.747,0,0,1-11.112-8l-.11-.361a11.451,11.451,0,0,1-.543-3.4v-21.39L.23,173.78a7.125,7.125,0,0,0,4.994,8.643l48.511,12.992a7.2,7.2,0,0,0,1.807.232,7,7,0,0,0,6.78-5.13l2.826-8.988Zm0,0" transform="translate(0 -126.135)" fill="#f98c9b"/>
    <path id="Path_36880" data-name="Path 36880" d="M155.595,77.041a6.275,6.275,0,1,0-6.275-6.275A6.281,6.281,0,0,0,155.595,77.041Zm0,0" transform="translate(-127.361 -54.588)" fill="#f98c9b"/>
    <path id="Path_36881" data-name="Path 36881" d="M140.222.492H93.163A7.854,7.854,0,0,0,85.32,8.336V42.845a7.854,7.854,0,0,0,7.843,7.843h47.059a7.854,7.854,0,0,0,7.843-7.843V8.336A7.854,7.854,0,0,0,140.222.492ZM93.163,6.767h47.059a1.569,1.569,0,0,1,1.569,1.569V30.607l-9.91-11.564a5.619,5.619,0,0,0-4.207-1.929,5.484,5.484,0,0,0-4.191,1.98L111.83,33.079l-3.8-3.787a5.507,5.507,0,0,0-7.78,0l-8.659,8.656V8.336A1.569,1.569,0,0,1,93.163,6.767Zm0,0" transform="translate(-72.773 0)" fill="#f98c9b"/>
  </g>
</svg>
