<svg xmlns="http://www.w3.org/2000/svg" width="27" height="27" viewBox="0 0 27 27">
  <g id="Group_70415" data-name="Group 70415" transform="translate(-1771 -247)">
    <circle id="Ellipse_819" data-name="Ellipse 819" cx="13.5" cy="13.5" r="13.5" transform="translate(1771 247)" fill="#fce4e7"/>
    <g id="Group_70414" data-name="Group 70414" transform="translate(1770 246)">
      <g id="Group_70297" data-name="Group 70297" transform="translate(8 8)">
        <path id="Path_36831" data-name="Path 36831" d="M14.815,21.852a4,4,0,0,1,.249-5.313,11.193,11.193,0,0,0-6.542,1.235A.982.982,0,0,0,8,18.641v2.175a1.036,1.036,0,0,0,1.036,1.036Z" transform="translate(-8 -9.415)" fill="#f83751"/>
        <g id="Group_70296" data-name="Group 70296" transform="translate(2.665)">
          <path id="Path_36832" data-name="Path 36832" d="M14.309,8a3.109,3.109,0,1,0,3.109,3.109A3.109,3.109,0,0,0,14.309,8Z" transform="translate(-11.2 -8)" fill="#f83751" fill-rule="evenodd"/>
          <g id="Group_70295" data-name="Group 70295" transform="translate(3.85 6.515)">
            <path id="Path_36833" data-name="Path 36833" d="M19.228,16.711a2.517,2.517,0,1,0,2.517,2.517A2.517,2.517,0,0,0,19.228,16.711Zm-3.406,2.517a3.406,3.406,0,1,1,3.406,3.406A3.406,3.406,0,0,1,15.822,19.228Z" transform="translate(-15.822 -15.822)" fill="#f83751" fill-rule="evenodd"/>
            <path id="Path_36834" data-name="Path 36834" d="M21.793,17.019a.444.444,0,0,0-.628,0l-4.146,4.146a.444.444,0,0,0,.628.628l4.146-4.146A.444.444,0,0,0,21.793,17.019Z" transform="translate(-16.001 -16.001)" fill="#f83751" fill-rule="evenodd"/>
          </g>
        </g>
      </g>
    </g>
  </g>
</svg>
