<svg xmlns="http://www.w3.org/2000/svg" width="12" height="12" viewBox="0 0 12 12">
  <g id="Group_70471" data-name="Group 70471" transform="translate(-759 -396)">
    <path id="Vector" d="M2.754,2.742c-.018,0-.042.012-.06.012A6,6,0,0,1,0,.06C0,.042.012.018.012,0A19.136,19.136,0,0,0,2.25.5,20.129,20.129,0,0,0,2.754,2.742Z" transform="translate(759.636 404.604)" fill="#f83751"/>
    <path id="Vector-2" data-name="Vector" d="M2.79.066A6.056,6.056,0,0,1,0,2.808,18.338,18.338,0,0,0,.546.5,18.769,18.769,0,0,0,2.778,0C2.772.024,2.79.048,2.79.066Z" transform="translate(767.574 404.604)" fill="#f83751"/>
    <path id="Vector-3" data-name="Vector" d="M2.838,2.838A18.986,18.986,0,0,0,.546,2.292,16.749,16.749,0,0,0,0,0,6.031,6.031,0,0,1,2.838,2.838Z" transform="translate(767.574 396.588)" fill="#f83751"/>
    <path id="Vector-4" data-name="Vector" d="M2.8.018A18.749,18.749,0,0,0,2.3,2.25,17.322,17.322,0,0,0,0,2.79,6.056,6.056,0,0,1,2.742,0C2.76,0,2.784.018,2.8.018Z" transform="translate(759.588 396.636)" fill="#f83751"/>
    <path id="Vector-5" data-name="Vector" d="M4.188,2.754A18.8,18.8,0,0,0,0,2.754,17.024,17.024,0,0,1,.612.318.981.981,0,0,0,.624.186,6.243,6.243,0,0,1,2.094,0,6.193,6.193,0,0,1,3.558.186a1,1,0,0,0,.018.132A17.227,17.227,0,0,1,4.188,2.754Z" transform="translate(762.906 396)" fill="#f83751"/>
    <path id="Vector-6" data-name="Vector" d="M2.754,4.188A16.826,16.826,0,0,1,.318,3.576a.981.981,0,0,0-.132-.012A6.243,6.243,0,0,1,0,2.094,6.193,6.193,0,0,1,.186.63,1,1,0,0,0,.318.612,17.862,17.862,0,0,1,2.754,0,19.544,19.544,0,0,0,2.754,4.188Z" transform="translate(759 399.906)" fill="#f83751"/>
    <path id="Vector-7" data-name="Vector" d="M2.754,2.094a6.243,6.243,0,0,1-.186,1.47.981.981,0,0,0-.132.012A18.086,18.086,0,0,1,0,4.188,18.8,18.8,0,0,0,0,0,17.024,17.024,0,0,1,2.436.612.5.5,0,0,0,2.568.63,6.233,6.233,0,0,1,2.754,2.094Z" transform="translate(768.246 399.906)" fill="#f83751"/>
    <path id="Vector-8" data-name="Vector" d="M4.188,0a16.826,16.826,0,0,1-.612,2.436,1,1,0,0,0-.018.132,6.193,6.193,0,0,1-1.464.186,6.243,6.243,0,0,1-1.47-.186.981.981,0,0,0-.012-.132A17.862,17.862,0,0,1,0,0,18.774,18.774,0,0,0,2.094.132,18.684,18.684,0,0,0,4.188,0Z" transform="translate(762.906 405.246)" fill="#f83751"/>
    <path id="Vector-9" data-name="Vector" d="M4.658,4.658a18.024,18.024,0,0,1-4.516,0,18.023,18.023,0,0,1,0-4.516,18.023,18.023,0,0,1,4.516,0A18.024,18.024,0,0,1,4.658,4.658Z" transform="translate(762.6 399.6)" fill="#f83751"/>
  </g>
</svg>
